<svg xmlns="http://www.w3.org/2000/svg" viewBox="0 0 1200 630" fill="none">
  <defs>
    <linearGradient id="bg" x1="0" y1="0" x2="1200" y2="630">
      <stop offset="0%" stop-color="#0A0E1A"/>
      <stop offset="100%" stop-color="#111827"/>
    </linearGradient>
    <radialGradient id="glow" cx="600" cy="220" r="380">
      <stop offset="0%" stop-color="#7CC4FF" stop-opacity="0.28"/>
      <stop offset="100%" stop-color="#7CC4FF" stop-opacity="0"/>
    </radialGradient>
    <linearGradient id="cyan" x1="0" y1="0" x2="0" y2="1">
      <stop offset="0%" stop-color="#A8D8FF"/>
      <stop offset="100%" stop-color="#4D9CD6"/>
    </linearGradient>
    <pattern id="grid" width="48" height="48" patternUnits="userSpaceOnUse">
      <path d="M 48 0 L 0 0 0 48" fill="none" stroke="rgba(148,163,184,0.06)" stroke-width="1"/>
    </pattern>
  </defs>
  <rect width="1200" height="630" fill="url(#bg)"/>
  <rect width="1200" height="630" fill="url(#grid)"/>
  <rect width="1200" height="630" fill="url(#glow)"/>

  <g transform="translate(80, 80)">
    <path d="M22 4L42 10V26C42 38 32 47 22 50C12 47 2 38 2 26V10L22 4Z" stroke="url(#cyan)" stroke-width="2.5" stroke-linejoin="round" fill="none"/>
    <circle cx="22" cy="26" r="3.5" fill="#A8D8FF"/>
    <text x="60" y="32" font-family="Inter, sans-serif" font-size="18" font-weight="600" fill="#E8EEF7" letter-spacing="0.06em">ADAPTIVE · ANTIVIRUS</text>
  </g>

  <text x="80" y="290" font-family="Inter, sans-serif" font-size="92" font-weight="800" fill="url(#cyan)" letter-spacing="-3">Adaptive</text>
  <text x="80" y="390" font-family="Inter, sans-serif" font-size="92" font-weight="800" fill="#E8EEF7" letter-spacing="-3">Antivirus</text>

  <text x="80" y="450" font-family="Inter, sans-serif" font-size="28" font-weight="500" fill="#94A3B8">Security that learns at the speed of attack</text>

  <g transform="translate(80, 520)">
    <rect x="0" y="0" width="280" height="44" rx="22" fill="rgba(124,196,255,0.08)" stroke="rgba(124,196,255,0.3)"/>
    <text x="22" y="28" font-family="Inter, sans-serif" font-size="14" fill="#7CC4FF" letter-spacing="0.18em" font-weight="600">DETECT · ADAPT · IMMUNIZE</text>
  </g>

  <g transform="translate(900, 240)" opacity="0.7">
    <circle cx="60" cy="60" r="36" fill="rgba(124,196,255,0.06)" stroke="rgba(124,196,255,0.3)" stroke-width="1.2"/>
    <circle cx="60" cy="60" r="60" fill="none" stroke="rgba(124,196,255,0.18)" stroke-width="1" stroke-dasharray="4 4"/>
    <circle cx="60" cy="60" r="86" fill="none" stroke="rgba(124,196,255,0.1)" stroke-width="1" stroke-dasharray="4 4"/>
    <circle cx="0" cy="60" r="6" fill="#7CC4FF"/>
    <circle cx="120" cy="60" r="6" fill="#7CC4FF"/>
    <circle cx="60" cy="0" r="6" fill="#7CC4FF"/>
    <circle cx="60" cy="120" r="6" fill="#7CC4FF"/>
    <text x="48" y="64" font-family="JetBrains Mono, monospace" font-size="11" fill="#7CC4FF">HQ</text>
  </g>
</svg>
